<?xml version="1.0" encoding="UTF-8"?>
<svg version="1.1" xmlns="http://www.w3.org/2000/svg" width="200" height="200">
<path d="M0 0 C66 0 132 0 200 0 C200 66 200 132 200 200 C134 200 68 200 0 200 C0 134 0 68 0 0 Z " fill="#FEFEFE" transform="translate(0,0)"/>
<path d="M0 0 C7.45231954 5.99425703 12.07191224 12.14126561 13.15234375 21.7890625 C13.49424861 30.62388396 11.42019544 36.87425693 5.6875 43.625 C0.65410597 48.89574107 -4.72980336 52.5910174 -12.125 53.3125 C-12.76953125 53.37566406 -13.4140625 53.43882812 -14.078125 53.50390625 C-21.97494375 53.93188069 -28.82668751 51.42018282 -35 46.5 C-38.26306757 43.46726661 -40.13842135 40.2856573 -42.125 36.3125 C-42.48207031 35.74273437 -42.83914062 35.17296875 -43.20703125 34.5859375 C-45.56708428 28.74104021 -45.05407352 19.67725273 -43.40234375 13.6953125 C-42.45716753 11.72842758 -41.42806505 10.05988888 -40.125 8.3125 C-39.3825 7.260625 -38.64 6.20875 -37.875 5.125 C-26.88487394 -6.11490165 -13.54019286 -7.31170414 0 0 Z " fill="#FED40B" transform="translate(158.125,75.6875)"/>
<path d="M0 0 C1.32 0.66 2.64 1.32 4 2 C4.99 1.34 5.98 0.68 7 0 C10.76687864 0 11.91190305 0.23537317 15 2 C15.99 1.34 16.98 0.68 18 0 C20 2 20 2 20.22705078 5.80712891 C20.22673346 7.4469742 20.21539681 9.08684017 20.1953125 10.7265625 C20.1924826 11.58937836 20.18965271 12.45219421 20.18673706 13.34115601 C20.17552333 16.1025772 20.15041684 18.8636765 20.125 21.625 C20.11497173 23.49478699 20.10584562 25.36457905 20.09765625 27.234375 C20.07558012 31.82304109 20.04104234 36.41146593 20 41 C18.515 40.505 18.515 40.505 17 40 C16.01 40.66 15.02 41.32 14 42 C13.34 41.34 12.68 40.68 12 40 C10.68 40.66 9.36 41.32 8 42 C7.505 40.515 7.505 40.515 7 39 C6.34 39 5.68 39 5 39 C4.67 39.99 4.34 40.98 4 42 C3.13375 41.4740625 3.13375 41.4740625 2.25 40.9375 C-0.35801776 39.85082593 -1.39417629 40.06934867 -4 41 C-4 40.34 -4 39.68 -4 39 C-4.66 39 -5.32 39 -6 39 C-6.33 39.99 -6.66 40.98 -7 42 C-7.33 42 -7.66 42 -8 42 C-8 29.13 -8 16.26 -8 3 C-4 1 -4 1 -1 1 C-0.67 0.67 -0.34 0.34 0 0 Z " fill="#F0F4F8" transform="translate(136,79)"/>
<path d="M0 0 C3.465 2.97 3.465 2.97 7 6 C7.73089844 6.51046875 8.46179688 7.0209375 9.21484375 7.546875 C12.00431221 9.49507519 13.7384997 10.8994412 14.54296875 14.28515625 C14.82719668 23.04208335 12.45482022 29.66818154 6.8125 36.3125 C0.25430108 43.17994733 -6.1453595 45.92676484 -15.5625 46.1875 C-18.95665807 46.25220665 -21.0865298 45.77368165 -24 44 C-26.3125 41.625 -26.3125 41.625 -28 39 C-27.75 36.6875 -27.75 36.6875 -27 35 C-26.34 35 -25.68 35 -25 35 C-25 35.66 -25 36.32 -25 37 C-24.236875 36.62875 -23.47375 36.2575 -22.6875 35.875 C-21.800625 35.58625 -20.91375 35.2975 -20 35 C-19.01 35.66 -18.02 36.32 -17 37 C-16.67 36.34 -16.34 35.68 -16 35 C-15.34 35 -14.68 35 -14 35 C-13.67 35.66 -13.34 36.32 -13 37 C-12.34 37 -11.68 37 -11 37 C-10.34 36.34 -9.68 35.68 -9 35 C-8.01 35.66 -7.02 36.32 -6 37 C-5.01 36.34 -4.02 35.68 -3 35 C-2.67 35.99 -2.34 36.98 -2 38 C-1.34 38 -0.68 38 0 38 C0 25.46 0 12.92 0 0 Z " fill="#FEB204" transform="translate(157,83)"/>
<path d="M0 0 C0.61875 0.350625 1.2375 0.70125 1.875 1.0625 C2.57625 1.371875 3.2775 1.68125 4 2 C4.66 1.67 5.32 1.34 6 1 C6 3.31 6 5.62 6 8 C2.7 8 -0.6 8 -4 8 C-4 8.99 -4 9.98 -4 11 C-0.7 11 2.6 11 6 11 C6 11.66 6 12.32 6 13 C2.7 13 -0.6 13 -4 13 C-4 13.99 -4 14.98 -4 16 C-0.7 16 2.6 16 6 16 C5 20 5 20 3.4375 21.9375 C1.6735849 24.46833471 1.74836486 25.98037834 2 29 C3.65 29.33 5.3 29.66 7 30 C7 30.33 7 30.66 7 31 C5.35 31 3.7 31 2 31 C2 32.32 2 33.64 2 35 C3.32 35.33 4.64 35.66 6 36 C5.505 38.475 5.505 38.475 5 41 C2 41 -1 41 -4 41 C-4 40.34 -4 39.68 -4 39 C-4.66 39 -5.32 39 -6 39 C-6.33 39.99 -6.66 40.98 -7 42 C-7.33 42 -7.66 42 -8 42 C-8 29.13 -8 16.26 -8 3 C-4 1 -4 1 -1 1 C-0.67 0.67 -0.34 0.34 0 0 Z " fill="#FCFBF5" transform="translate(136,79)"/>
<path d="M0 0 C1.65 0.33 3.3 0.66 5 1 C5 1.66 5 2.32 5 3 C5.515625 2.505 6.03125 2.01 6.5625 1.5 C9.94888329 -0.58392818 12.09385318 -0.55802097 16 0 C18.82622471 2.174019 19.81024835 3.82432223 20.37890625 7.34765625 C20.6522482 13.19364699 19.84946047 16.58444241 16 21 C13.26752652 22.36623674 11.01801098 22.128426 8 22 C7.67 21.67 7.34 21.34 7 21 C6.67 23.97 6.34 26.94 6 30 C4.68 30 3.36 30 2 30 C2 21.09 2 12.18 2 3 C1.01 3 0.02 3 -1 3 C-0.67 2.01 -0.34 1.02 0 0 Z " fill="#FFD920" transform="translate(51,106)"/>
<path d="M0 0 C2.69105198 2.17574416 4.45532928 3.91065856 6 7 C6.40310513 11.83726155 6.47543282 14.09831707 4.1875 18.4375 C1.41940824 21.68012178 -0.20192824 21.89654625 -4.375 22.4375 C-8 22 -8 22 -10.9375 19.625 C-13.91272053 15.51449795 -13.76238351 10.86320426 -13 6 C-10.69452801 0.01649595 -6.02814722 -1.18682821 0 0 Z " fill="#FFFDF4" transform="translate(88,106)"/>
<path d="M0 0 C2.36497439 1.86708505 3.66030715 3.32061431 5 6 C5.07116382 8.37402501 5.08409085 10.75000677 5.0625 13.125 C5.05347656 14.40632813 5.04445313 15.68765625 5.03515625 17.0078125 C5.02355469 17.99523437 5.01195313 18.98265625 5 20 C5.99 19.67 6.98 19.34 8 19 C7.67 19.99 7.34 20.98 7 22 C2.25 21.25 2.25 21.25 0 19 C-0.515625 19.495 -1.03125 19.99 -1.5625 20.5 C-4.82929507 22.51033543 -7.23420736 22.28421077 -11 22 C-12 21 -12 21 -12.0625 17.4375 C-12.041875 16.303125 -12.02125 15.16875 -12 14 C-7.38987758 11.04952165 -4.63470383 9.4502728 1 10 C0.34 7.69 -0.32 5.38 -1 3 C-2.98 3 -4.96 3 -7 3 C-7 4.98 -7 6.96 -7 9 C-8.32 8.67 -9.64 8.34 -11 8 C-11.33 6.35 -11.66 4.7 -12 3 C-7.92081084 0.03331698 -5.01742187 -0.63858096 0 0 Z " fill="#1B1B1B" transform="translate(62,75)"/>
<path d="M0 0 C2.41294727 2.87697559 1.8984643 5.31409799 1.625 8.9375 C-2.92926184 11.60340937 -6.11446963 12.25313182 -11.375 11.9375 C-10.385 13.9175 -9.395 15.8975 -8.375 17.9375 C-5.405 17.9375 -2.435 17.9375 0.625 17.9375 C0.625 17.2775 0.625 16.6175 0.625 15.9375 C1.285 16.2675 1.945 16.5975 2.625 16.9375 C0.88544641 19.35774847 -0.51799455 20.74243533 -3.46875 21.4140625 C-7.95973942 21.69849183 -9.82909948 21.37199225 -13.4375 18.5 C-16.13331152 14.5635555 -16.15478922 10.53147565 -15.375 5.9375 C-14.11354888 2.97308987 -13.15185568 1.50005067 -10.5625 -0.375 C-6.73586981 -1.5776552 -3.68278755 -1.64756285 0 0 Z " fill="#1C1C1C" transform="translate(43.375,76.0625)"/>
<path d="M0 0 C0.99 0 1.98 0 3 0 C3.9327418 4.099361 4.28825262 8.12043288 4.5625 12.3125 C4.64628906 13.56675781 4.73007813 14.82101563 4.81640625 16.11328125 C4.87699219 17.06589844 4.93757813 18.01851562 5 19 C7.41619823 19.25030977 7.41619823 19.25030977 10 19 C12.40119059 15.39821412 12.43771322 12.49133631 12.625 8.3125 C12.68300781 7.2596582 12.68300781 7.2596582 12.7421875 6.18554688 C12.8362334 4.45745345 12.9191968 2.72876325 13 1 C14.32 1 15.64 1 17 1 C17.08761663 4.54150893 17.14059739 8.08273633 17.1875 11.625 C17.21263672 12.62402344 17.23777344 13.62304688 17.26367188 14.65234375 C17.31882257 20.20418061 17.18942949 24.22743965 14 29 C11.50577577 31.49422423 9.41593941 31.6810589 5.9765625 32.03125 C4 32 4 32 1.5 30.8125 C0 29 0 29 0 25 C0.99 25 1.98 25 3 25 C3.33 26.32 3.66 27.64 4 29 C6.91634129 29.2502157 6.91634129 29.2502157 10 29 C12.29013653 25.5647952 12.17842973 24.014669 12 20 C11.34 20.66 10.68 21.32 10 22 C6.5625 22.375 6.5625 22.375 3 22 C0.87149123 20.20194464 0.08758448 18.75577081 -0.23364258 15.98388672 C-0.29569988 13.56543977 -0.26117509 11.16805434 -0.1875 8.75 C-0.17396484 7.90953125 -0.16042969 7.0690625 -0.14648438 6.203125 C-0.11123464 4.13514062 -0.0574302 2.06748729 0 0 Z " fill="#242423" transform="translate(93,75)"/>
<path d="M0 0 C2.0859375 0.40625 2.0859375 0.40625 5.0859375 2.40625 C5.84639634 8.38128374 5.84639634 8.38128374 3.6484375 11.34375 C-0.17308104 12.92828208 -3.83268741 12.64171395 -7.9140625 12.40625 C-7.2540625 14.38625 -6.5940625 16.36625 -5.9140625 18.40625 C-1.13643612 19.42312046 -1.13643612 19.42312046 3.5234375 18.46875 C4.0390625 18.118125 4.5546875 17.7675 5.0859375 17.40625 C3.3359375 21.28125 3.3359375 21.28125 1.0859375 22.40625 C-3.09550261 22.80072548 -5.22352298 22.85660186 -8.7890625 20.53125 C-11.76990745 17.55040505 -12.12678746 15.77553959 -12.2890625 11.65625 C-12.23323773 8.15451435 -11.99909073 5.68646238 -9.9765625 2.78125 C-6.33598163 -0.04205761 -4.46333179 -0.18279857 0 0 Z " fill="#FFD921" transform="translate(41.9140625,105.59375)"/>
<path d="M0 0 C1.79421519 1.79421519 1.21485363 4.39032926 1.25 6.8125 C1.28867188 8.39998047 1.28867188 8.39998047 1.328125 10.01953125 C0.96423499 13.32486549 0.33783474 14.67327136 -2 17 C-4.5625 17.375 -4.5625 17.375 -7 17 C-9 15 -9 15 -9.265625 12.5390625 C-9.26046875 11.57742187 -9.2553125 10.61578125 -9.25 9.625 C-9.25515625 8.66851562 -9.2603125 7.71203125 -9.265625 6.7265625 C-8.9957738 3.95661926 -8.50531282 2.321574 -7 0 C-4.31633121 -1.3418344 -2.84719317 -0.73004953 0 0 Z " fill="#FFFEFA" transform="translate(66,109)"/>
<path d="M0 0 C2.69105198 2.17574416 4.45532928 3.91065856 6 7 C6.40310513 11.83726155 6.47543282 14.09831707 4.1875 18.4375 C1.41940824 21.68012178 -0.20192824 21.89654625 -4.375 22.4375 C-8 22 -8 22 -10.9375 19.625 C-13.91272053 15.51449795 -13.76238351 10.86320426 -13 6 C-10.69452801 0.01649595 -6.02814722 -1.18682821 0 0 Z M-8.25 2.875 C-10.65222429 7.16468622 -10.87110948 11.17358259 -10 16 C-8.76230581 18.30032677 -8.76230581 18.30032677 -7 20 C-4 20.75 -4 20.75 -1 20 C1.9901272 17.0098728 2.25147563 14.00003226 2.4375 9.9375 C2.33059387 6.52159461 2.18528211 5.27792317 0.25 2.375 C-3.15886097 0.29180719 -5.17947469 0.31622891 -8.25 2.875 Z " fill="#FFD921" transform="translate(88,106)"/>
<path d="M0 0 C0.78503906 0.00515625 1.57007812 0.0103125 2.37890625 0.015625 C3.55259766 0.00789063 3.55259766 0.00789063 4.75 0 C6.94140625 0.265625 6.94140625 0.265625 9.94140625 2.265625 C9.61140625 3.585625 9.28140625 4.905625 8.94140625 6.265625 C8.28140625 6.265625 7.62140625 6.265625 6.94140625 6.265625 C6.28140625 4.945625 5.62140625 3.625625 4.94140625 2.265625 C3.29140625 2.265625 1.64140625 2.265625 -0.05859375 2.265625 C-0.38859375 3.585625 -0.71859375 4.905625 -1.05859375 6.265625 C-0.34832031 6.68714844 0.36195312 7.10867187 1.09375 7.54296875 C2.01285156 8.09082031 2.93195313 8.63867188 3.87890625 9.203125 C4.79542969 9.74839844 5.71195313 10.29367188 6.65625 10.85546875 C8.94140625 12.265625 8.94140625 12.265625 9.94140625 13.265625 C10.51556893 18.54792165 10.51556893 18.54792165 8.44140625 21.140625 C4.89204194 22.73783894 1.77207166 22.84650459 -2.05859375 22.265625 C-4.55859375 21.015625 -4.55859375 21.015625 -6.05859375 19.265625 C-6.05859375 17.945625 -6.05859375 16.625625 -6.05859375 15.265625 C-5.06859375 15.265625 -4.07859375 15.265625 -3.05859375 15.265625 C-2.39859375 16.585625 -1.73859375 17.905625 -1.05859375 19.265625 C1.25140625 19.265625 3.56140625 19.265625 5.94140625 19.265625 C5.94140625 17.945625 5.94140625 16.625625 5.94140625 15.265625 C5.31492187 14.93949219 4.6884375 14.61335938 4.04296875 14.27734375 C2.81707031 13.62185547 2.81707031 13.62185547 1.56640625 12.953125 C0.75429687 12.52386719 -0.0578125 12.09460938 -0.89453125 11.65234375 C-3.05859375 10.265625 -3.05859375 10.265625 -5.05859375 7.265625 C-4.69320411 3.52038119 -4.22838395 0.54559793 0 0 Z " fill="#FED612" transform="translate(103.05859375,105.734375)"/>
<path d="M0 0 C0.99 0.66 1.98 1.32 3 2 C3 3.32 3 4.64 3 6 C2.34 6 1.68 6 1 6 C0.34 5.01 -0.32 4.02 -1 3 C-4.08365871 2.7497843 -4.08365871 2.7497843 -7 3 C-7 4.32 -7 5.64 -7 7 C-6.06027344 7.50660156 -6.06027344 7.50660156 -5.1015625 8.0234375 C-4.28429687 8.46945313 -3.46703125 8.91546875 -2.625 9.375 C-1.81289062 9.81585938 -1.00078125 10.25671875 -0.1640625 10.7109375 C2 12 2 12 4 14 C3.75 17.5625 3.75 17.5625 3 21 C0.39820337 22.30089831 -1.5969188 22.16840078 -4.5 22.1875 C-5.4796875 22.20167969 -6.459375 22.21585938 -7.46875 22.23046875 C-10 22 -10 22 -12 20 C-11.625 17.375 -11.625 17.375 -11 15 C-10.34 15 -9.68 15 -9 15 C-8.34 16.65 -7.68 18.3 -7 20 C-5.02 20 -3.04 20 -1 20 C-0.67 18.68 -0.34 17.36 0 16 C-0.71027344 15.64808594 -1.42054687 15.29617187 -2.15234375 14.93359375 C-9.56997395 10.94908833 -9.56997395 10.94908833 -10.88671875 8.04296875 C-11.125 6.125 -11.125 6.125 -11 3 C-7.48991846 -0.36967828 -4.74988885 -0.43180808 0 0 Z " fill="#0D0D0D" transform="translate(84,75)"/>
<path d="M0 0 C0 0.66 0 1.32 0 2 C0.99 2 1.98 2 3 2 C3 3.32 3 4.64 3 6 C2.01 6.495 2.01 6.495 1 7 C1.66 7.66 2.32 8.32 3 9 C3.4199362 12.19151509 3.26924708 13.58491075 1.5 16.3125 C1.005 16.869375 0.51 17.42625 0 18 C-1.98 17.34 -3.96 16.68 -6 16 C-6 14.68 -6 13.36 -6 12 C-5.34 11.67 -4.68 11.34 -4 11 C-4.515625 10.608125 -5.03125 10.21625 -5.5625 9.8125 C-7 8 -7 8 -6.875 5.5 C-5.47560744 1.50173555 -4.32575695 0 0 0 Z " fill="#29CDCE" transform="translate(144,98)"/>
<path d="M0 0 C-0.25561323 2.3431213 -0.59270772 4.67843403 -1 7 C-3.95664519 8.4783226 -6.74229737 8.06032783 -10 8 C-10.35664336 2.65034965 -10.35664336 2.65034965 -8.9375 0.0625 C-5.87530347 -1.61676907 -3.30629059 -0.68621125 0 0 Z " fill="#F4F4F4" transform="translate(42,78)"/>
<path d="M0 0 C3.5 0.125 3.5 0.125 4.5 1.125 C4.6875 3.5625 4.6875 3.5625 4.5 6.125 C2.5 8.125 2.5 8.125 0.5546875 8.3203125 C-1.46354167 8.25520833 -3.48177083 8.19010417 -5.5 8.125 C-4.48630137 0.16022505 -4.48630137 0.16022505 0 0 Z " fill="#FFFDF5" transform="translate(39.5,107.875)"/>
<path d="M0 0 C6.93 0 13.86 0 21 0 C21 0.99 21 1.98 21 3 C14.07 3 7.14 3 0 3 C0 2.01 0 1.02 0 0 Z " fill="#C0C5D4" transform="translate(132,92)"/>
<path d="M0 0 C6.93 0 13.86 0 21 0 C21 0.99 21 1.98 21 3 C14.07 3 7.14 3 0 3 C0 2.01 0 1.02 0 0 Z " fill="#C0C5D4" transform="translate(132,87)"/>
<path d="M0 0 C1.670625 0.061875 1.670625 0.061875 3.375 0.125 C3.04726629 3.15653686 2.73365103 4.74073103 0.625 7 C-2.21974935 8.42237468 -3.64116624 8.03672698 -6.625 7.125 C-5.84042384 2.15601765 -5.49387562 0.18944399 0 0 Z " fill="#F0F0F0" transform="translate(59.625,86.875)"/>
<path d="M0 0 C1.65 0.33 3.3 0.66 5 1 C5.26218749 4.14624993 5.24754367 5.61837017 3.5 8.3125 C2.7575 9.1478125 2.7575 9.1478125 2 10 C0.02 9.34 -1.96 8.68 -4 8 C-4 6.68 -4 5.36 -4 4 C-2.68 3.67 -1.36 3.34 0 3 C0 2.01 0 1.02 0 0 Z " fill="#21B2B9" transform="translate(142,106)"/>
<path d="M0 0 C1.00476761 3.01430284 1.01734775 4.75283928 0.875 7.875 C0.81322182 12.10062779 1.28162134 14.60202667 4 18 C1.36559084 17.63663322 0.22588577 17.24229394 -1.61328125 15.26953125 C-3.24266298 12.60285299 -3.40307035 11.0392739 -3.375 7.9375 C-3.38273437 7.08027344 -3.39046875 6.22304687 -3.3984375 5.33984375 C-2.93135469 2.59687704 -2.13044088 1.71900653 0 0 Z " fill="#FFD508" transform="translate(78,109)"/>
<path d="M0 0 C1.65 0.33 3.3 0.66 5 1 C5.48137536 7.3782235 5.48137536 7.3782235 3.5 9.9375 C-0.12197655 11.47684003 -3.07962923 11.19601854 -7 11 C-7 10.67 -7 10.34 -7 10 C-5.865625 9.690625 -4.73125 9.38125 -3.5625 9.0625 C-0.21224901 8.37075469 -0.21224901 8.37075469 1 7 C1.19149081 3.36805359 1.19149081 3.36805359 0 0 Z " fill="#FFD60E" transform="translate(42,107)"/>
<path d="M0 0 C-2.61941217 1.74627478 -4.03824877 2.38722388 -7 3 C-7 4.98 -7 6.96 -7 9 C-8.32 8.67 -9.64 8.34 -11 8 C-11.33 6.35 -11.66 4.7 -12 3 C-7.89542386 0.01485372 -5.02254631 -0.2954439 0 0 Z " fill="#333333" transform="translate(62,75)"/>
<path d="M0 0 C0.66 0 1.32 0 2 0 C2.66 1.65 3.32 3.3 4 5 C7.94727588 5.17942163 10.5980513 5.09350689 14 3 C14 3.99 14 4.98 14 6 C11.39820337 7.30089831 9.4030812 7.16840078 6.5 7.1875 C5.5203125 7.20167969 4.540625 7.21585937 3.53125 7.23046875 C1 7 1 7 -1 5 C-0.625 2.375 -0.625 2.375 0 0 Z " fill="#1F1F1F" transform="translate(73,90)"/>
<path d="M0 0 C0.99 0 1.98 0 3 0 C3.185625 0.61875 3.37125 1.2375 3.5625 1.875 C5.71437233 5.05602866 8.37533763 5.19451947 12 6 C12 6.33 12 6.66 12 7 C4.72727273 7.36363636 4.72727273 7.36363636 1.5 5.75 C0 4 0 4 0 0 Z " fill="#FFDA29" transform="translate(97,121)"/>
<path d="M0 0 C0.33 0 0.66 0 1 0 C1.33 1.65 1.66 3.3 2 5 C3.65 5.33 5.3 5.66 7 6 C6.67 6.66 6.34 7.32 6 8 C3.66705225 8.04241723 1.33297433 8.04092937 -1 8 C-2 7 -2 7 -2.1875 4.5625 C-2 2 -2 2 0 0 Z " fill="#060606" transform="translate(52,89)"/>
<path d="M0 0 C3.3 0 6.6 0 10 0 C10 0.99 10 1.98 10 3 C6.7 3 3.4 3 0 3 C0 2.01 0 1.02 0 0 Z " fill="#D1D5E3" transform="translate(132,92)"/>
<path d="M0 0 C3.3 0 6.6 0 10 0 C10 0.99 10 1.98 10 3 C6.7 3 3.4 3 0 3 C0 2.01 0 1.02 0 0 Z " fill="#D1D5E3" transform="translate(132,87)"/>
<path d="M0 0 C0.33 0.66 0.66 1.32 1 2 C-0.051875 2.103125 -1.10375 2.20625 -2.1875 2.3125 C-5.87430754 2.97733415 -7.96638599 3.88566296 -11 6 C-11 5.01 -11 4.02 -11 3 C-7.14243493 0.84694043 -4.44870215 -0.39253254 0 0 Z " fill="#343434" transform="translate(62,85)"/>
<path d="M0 0 C6.625 -0.25 6.625 -0.25 10 2 C10 3.32 10 4.64 10 6 C9.34 6 8.68 6 8 6 C7.34 5.01 6.68 4.02 6 3 C2.94570927 1.78715124 2.94570927 1.78715124 0 1 C0 0.67 0 0.34 0 0 Z " fill="#2A2A2A" transform="translate(77,75)"/>
<path d="M0 0 C1.65 0 3.3 0 5 0 C4.67 1.65 4.34 3.3 4 5 C2.68 4.67 1.36 4.34 0 4 C0 2.68 0 1.36 0 0 Z " fill="#21CECE" transform="translate(138,110)"/>
<path d="M0 0 C2.475 0.495 2.475 0.495 5 1 C5 1.99 5 2.98 5 4 C3.35 4 1.7 4 0 4 C0 2.68 0 1.36 0 0 Z " fill="#1BB0B7" transform="translate(142,99)"/>
</svg>
